<?xml version="1.0" encoding="utf-8"?>
<!-- Generator: Adobe Illustrator 22.0.1, SVG Export Plug-In . SVG Version: 6.00 Build 0)  -->
<svg version="1.1" id="Слой_1" xmlns="http://www.w3.org/2000/svg" xmlns:xlink="http://www.w3.org/1999/xlink" x="0px" y="0px"
	 viewBox="0 0 32 32" style="enable-background:new 0 0 32 32;" xml:space="preserve">
<style type="text/css">
	.st0{fill:none;stroke:#000000;stroke-width:2;stroke-linecap:round;stroke-miterlimit:10;}
	.st1{fill:none;stroke:#000000;stroke-width:2;stroke-linecap:round;stroke-linejoin:round;stroke-miterlimit:10;}
</style>
<path class="st0" d="M8.5,3c2.2-1.3,4.8-2,7.5-2c8.3,0,15,6.7,15,15s-6.7,15-15,15S1,24.3,1,16c0-3.3,1-6.3,2.8-8.8"/>
<path class="st1" d="M18,2c0,0-3,4-3,6c0,1,0,4,3,5s5,1,6,2s0,2,0,4s1,3,5,4"/>
<path class="st1" d="M3,23c0,0,3-1,5-1s6,0,8,1s3,2,4,7"/>
<path class="st1" d="M5.8,5C5.9,5,5.9,4.9,5.8,5C5.9,4.9,5.9,4.9,5.8,5"/>
</svg>
