<?xml version="1.0" encoding="utf-8"?>
<!-- Generator: Adobe Illustrator 22.0.1, SVG Export Plug-In . SVG Version: 6.00 Build 0)  -->
<svg version="1.1" id="Слой_1" xmlns="http://www.w3.org/2000/svg" xmlns:xlink="http://www.w3.org/1999/xlink" x="0px" y="0px"
	 viewBox="0 0 32 32" style="enable-background:new 0 0 32 32;" xml:space="preserve">
<style type="text/css">
	.st0{fill:none;stroke:#000000;stroke-linecap:round;stroke-linejoin:round;stroke-miterlimit:10;}
</style>
<path class="st0" d="M6.5,7.5c0,0,0,16,0,20s3,4,3,4h13c0,0,3,0,3-4s0-20,0-20h1c0,0,1,0,1-1s0-2,0-2s0-1-1-1s-21,0-21,0s-1,0-1,1
	s0,2,0,2s0,1,1,1s17,0,17,0"/>
<path class="st0" d="M12.5,3.5v-2c0,0,0-1,1-1s5,0,5,0s1,0,1,1s0,2,0,2"/>
<path class="st0" d="M20,29.5h2.1c0,0,1.4,0,1.4-2s0-3,0-3"/>
</svg>
